<?xml version="1.0" encoding="UTF-8" standalone="no"?>
<!DOCTYPE svg PUBLIC "-//W3C//DTD SVG 1.1//EN" "http://www.w3.org/Graphics/SVG/1.1/DTD/svg11.dtd">
<svg width="100%" height="100%" viewBox="0 0 32 32" version="1.1" xmlns="http://www.w3.org/2000/svg" xmlns:xlink="http://www.w3.org/1999/xlink" xml:space="preserve" xmlns:serif="http://www.serif.com/" style="fill-rule:evenodd;clip-rule:evenodd;stroke-linejoin:round;stroke-miterlimit:2;">
    <path d="M30.691,7.021l0,17.958c0,3.186 -2.586,5.772 -5.772,5.772l-17.958,-0c-3.186,-0 -5.772,-2.586 -5.772,-5.772l0,-17.958c0,-3.186 2.586,-5.772 5.772,-5.772l17.958,-0c3.186,-0 5.772,2.586 5.772,5.772Z"/>
    <g>
        <path d="M14.551,6.623c0,0.139 -0.006,0.256 -0.017,0.353c-0.013,0.098 -0.031,0.176 -0.054,0.235c-0.024,0.06 -0.054,0.104 -0.089,0.132c-0.037,0.029 -0.075,0.043 -0.118,0.043l-2.309,0l0,7.43c0,0.049 -0.014,0.091 -0.045,0.129c-0.032,0.038 -0.083,0.068 -0.153,0.093c-0.072,0.024 -0.168,0.042 -0.289,0.057c-0.121,0.015 -0.273,0.02 -0.452,0.02c-0.181,0 -0.332,-0.005 -0.453,-0.02c-0.121,-0.015 -0.217,-0.033 -0.289,-0.057c-0.071,-0.025 -0.122,-0.055 -0.153,-0.093c-0.031,-0.038 -0.047,-0.08 -0.047,-0.129l0,-7.43l-2.308,0c-0.047,0 -0.088,-0.014 -0.121,-0.043c-0.034,-0.028 -0.061,-0.072 -0.085,-0.132c-0.025,-0.059 -0.042,-0.137 -0.054,-0.235c-0.011,-0.097 -0.017,-0.214 -0.017,-0.353c0,-0.141 0.006,-0.262 0.017,-0.363c0.012,-0.099 0.029,-0.179 0.054,-0.238c0.024,-0.06 0.051,-0.102 0.085,-0.128c0.033,-0.026 0.074,-0.04 0.121,-0.04l6.498,0c0.043,0 0.081,0.014 0.118,0.04c0.035,0.026 0.065,0.068 0.089,0.128c0.023,0.059 0.041,0.139 0.054,0.238c0.011,0.101 0.017,0.222 0.017,0.363Z" style="fill:rgb(241,241,241);fill-rule:nonzero;"/>
        <path d="M23.542,10.357c0,0.765 -0.094,1.449 -0.284,2.052c-0.191,0.602 -0.473,1.115 -0.849,1.535c-0.375,0.42 -0.839,0.741 -1.392,0.961c-0.553,0.222 -1.194,0.332 -1.921,0.332c-0.717,-0 -1.342,-0.094 -1.877,-0.281c-0.535,-0.188 -0.98,-0.474 -1.336,-0.859c-0.356,-0.384 -0.623,-0.874 -0.801,-1.468c-0.179,-0.594 -0.268,-1.296 -0.268,-2.108c0,-0.746 0.096,-1.417 0.286,-2.012c0.19,-0.597 0.473,-1.104 0.848,-1.522c0.375,-0.418 0.839,-0.739 1.392,-0.962c0.554,-0.223 1.196,-0.334 1.927,-0.334c0.699,-0 1.315,0.092 1.849,0.277c0.534,0.186 0.98,0.47 1.339,0.855c0.359,0.385 0.631,0.87 0.813,1.456c0.182,0.587 0.274,1.28 0.274,2.078Zm-1.966,0.099c0,-0.484 -0.038,-0.925 -0.114,-1.321c-0.076,-0.396 -0.206,-0.736 -0.388,-1.019c-0.183,-0.283 -0.426,-0.5 -0.731,-0.655c-0.304,-0.155 -0.683,-0.232 -1.14,-0.232c-0.461,0 -0.845,0.087 -1.154,0.26c-0.308,0.173 -0.558,0.405 -0.747,0.696c-0.191,0.289 -0.326,0.627 -0.403,1.014c-0.079,0.388 -0.118,0.796 -0.118,1.23c0,0.503 0.038,0.955 0.114,1.357c0.075,0.401 0.204,0.744 0.385,1.028c0.181,0.286 0.423,0.504 0.726,0.653c0.304,0.15 0.686,0.224 1.147,0.224c0.461,0 0.845,-0.086 1.155,-0.256c0.309,-0.171 0.558,-0.405 0.748,-0.698c0.19,-0.295 0.324,-0.638 0.403,-1.03c0.077,-0.393 0.117,-0.808 0.117,-1.251Z" style="fill:rgb(241,241,241);fill-rule:nonzero;"/>
        <path d="M14.914,21.401c0,0.846 -0.111,1.568 -0.332,2.169c-0.22,0.601 -0.538,1.092 -0.951,1.471c-0.413,0.381 -0.915,0.66 -1.507,0.838c-0.591,0.178 -1.296,0.267 -2.112,0.267l-2.201,0c-0.158,0 -0.289,-0.047 -0.396,-0.139c-0.106,-0.093 -0.16,-0.244 -0.16,-0.452l0,-8.037c0,-0.209 0.054,-0.359 0.16,-0.453c0.107,-0.091 0.238,-0.138 0.396,-0.138l2.365,0c0.821,0 1.519,0.096 2.091,0.289c0.572,0.191 1.055,0.477 1.446,0.855c0.392,0.376 0.69,0.843 0.894,1.399c0.205,0.556 0.307,1.199 0.307,1.931Zm-1.938,0.064c0,-0.437 -0.051,-0.844 -0.153,-1.219c-0.102,-0.375 -0.266,-0.7 -0.492,-0.976c-0.226,-0.276 -0.515,-0.49 -0.87,-0.645c-0.353,-0.153 -0.817,-0.23 -1.392,-0.23l-0.948,-0l0,6.27l0.976,-0c0.514,-0 0.946,-0.068 1.297,-0.2c0.352,-0.133 0.645,-0.334 0.88,-0.603c0.235,-0.268 0.41,-0.601 0.527,-1.001c0.117,-0.398 0.175,-0.864 0.175,-1.396Z" style="fill:rgb(241,241,241);fill-rule:nonzero;"/>
        <path d="M24.745,21.43c0,0.764 -0.095,1.449 -0.284,2.051c-0.19,0.603 -0.473,1.115 -0.848,1.535c-0.375,0.42 -0.839,0.741 -1.393,0.962c-0.553,0.222 -1.194,0.331 -1.921,0.331c-0.716,0 -1.342,-0.093 -1.876,-0.28c-0.534,-0.188 -0.981,-0.474 -1.337,-0.86c-0.356,-0.383 -0.623,-0.874 -0.801,-1.467c-0.178,-0.594 -0.267,-1.296 -0.267,-2.109c0,-0.745 0.095,-1.417 0.285,-2.012c0.189,-0.597 0.473,-1.103 0.848,-1.522c0.375,-0.417 0.84,-0.738 1.393,-0.961c0.553,-0.224 1.195,-0.335 1.928,-0.335c0.697,0 1.313,0.092 1.848,0.278c0.534,0.185 0.981,0.469 1.34,0.855c0.357,0.385 0.629,0.869 0.811,1.456c0.184,0.586 0.274,1.28 0.274,2.078Zm-1.965,0.099c-0,-0.485 -0.038,-0.925 -0.115,-1.322c-0.076,-0.395 -0.205,-0.735 -0.389,-1.019c-0.182,-0.283 -0.426,-0.5 -0.729,-0.655c-0.304,-0.154 -0.684,-0.232 -1.14,-0.232c-0.461,0 -0.846,0.088 -1.154,0.26c-0.309,0.174 -0.559,0.406 -0.748,0.696c-0.19,0.289 -0.324,0.627 -0.403,1.014c-0.079,0.388 -0.118,0.797 -0.118,1.23c-0,0.504 0.039,0.956 0.115,1.357c0.076,0.401 0.204,0.744 0.384,1.029c0.181,0.286 0.423,0.503 0.726,0.652c0.305,0.15 0.688,0.225 1.147,0.225c0.461,0 0.847,-0.086 1.154,-0.257c0.31,-0.171 0.559,-0.404 0.749,-0.697c0.19,-0.295 0.324,-0.638 0.403,-1.031c0.078,-0.392 0.118,-0.808 0.118,-1.25Z" style="fill:rgb(241,241,241);fill-rule:nonzero;"/>
    </g>
</svg>
