<?xml version="1.0" encoding="UTF-8" standalone="no"?>
<!DOCTYPE svg PUBLIC "-//W3C//DTD SVG 1.1//EN" "http://www.w3.org/Graphics/SVG/1.1/DTD/svg11.dtd">
<svg width="100%" height="100%" viewBox="0 0 32 32" version="1.1" xmlns="http://www.w3.org/2000/svg" xmlns:xlink="http://www.w3.org/1999/xlink" xml:space="preserve" xmlns:serif="http://www.serif.com/" style="fill-rule:evenodd;clip-rule:evenodd;stroke-linecap:round;stroke-linejoin:round;stroke-miterlimit:1.5;">
    <path d="M30.691,7.021l0,17.958c0,3.186 -2.586,5.772 -5.772,5.772l-17.958,0c-3.186,0 -5.772,-2.586 -5.772,-5.772l-0,-17.958c-0,-3.186 2.586,-5.772 5.772,-5.772l17.958,-0c3.186,-0 5.772,2.586 5.772,5.772Z" style="fill:url(#_Linear1);stroke:url(#_Linear2);stroke-width:1px;"/>
    <path d="M8.743,13.368c-0,0.095 -0.004,0.175 -0.012,0.242c-0.009,0.067 -0.021,0.12 -0.037,0.161c-0.016,0.041 -0.037,0.071 -0.061,0.09c-0.025,0.02 -0.051,0.03 -0.081,0.03l-1.582,-0l0,5.092c0,0.033 -0.01,0.062 -0.031,0.088c-0.022,0.026 -0.057,0.047 -0.105,0.064c-0.049,0.016 -0.115,0.029 -0.198,0.039c-0.083,0.01 -0.187,0.014 -0.31,0.014c-0.124,0 -0.227,-0.004 -0.31,-0.014c-0.083,-0.01 -0.149,-0.023 -0.198,-0.039c-0.049,-0.017 -0.084,-0.038 -0.105,-0.064c-0.021,-0.026 -0.032,-0.055 -0.032,-0.088l0,-5.092l-1.582,-0c-0.032,-0 -0.06,-0.01 -0.083,-0.03c-0.023,-0.019 -0.042,-0.049 -0.058,-0.09c-0.017,-0.041 -0.029,-0.094 -0.037,-0.161c-0.008,-0.067 -0.012,-0.147 -0.012,-0.242c-0,-0.097 0.004,-0.18 0.012,-0.249c0.008,-0.068 0.02,-0.123 0.037,-0.163c0.016,-0.041 0.035,-0.07 0.058,-0.088c0.023,-0.018 0.051,-0.027 0.083,-0.027l4.453,-0c0.03,-0 0.056,0.009 0.081,0.027c0.024,0.018 0.045,0.047 0.061,0.088c0.016,0.04 0.028,0.095 0.037,0.163c0.008,0.069 0.012,0.152 0.012,0.249Z" style="fill:rgb(241,241,241);fill-rule:nonzero;"/>
    <path d="M14.905,15.927c-0,0.524 -0.065,0.993 -0.195,1.406c-0.131,0.413 -0.324,0.764 -0.582,1.052c-0.257,0.288 -0.575,0.508 -0.954,0.659c-0.379,0.152 -0.818,0.227 -1.316,0.227c-0.492,0 -0.92,-0.064 -1.287,-0.192c-0.366,-0.129 -0.671,-0.325 -0.915,-0.589c-0.244,-0.263 -0.427,-0.599 -0.549,-1.006c-0.123,-0.407 -0.184,-0.888 -0.184,-1.445c0,-0.511 0.066,-0.971 0.196,-1.379c0.13,-0.409 0.324,-0.756 0.581,-1.043c0.257,-0.286 0.575,-0.506 0.954,-0.659c0.38,-0.153 0.82,-0.229 1.321,-0.229c0.479,-0 0.901,0.063 1.267,0.19c0.366,0.127 0.672,0.322 0.918,0.586c0.246,0.264 0.432,0.596 0.557,0.998c0.125,0.402 0.188,0.877 0.188,1.424Zm-1.348,0.068c0,-0.332 -0.026,-0.634 -0.078,-0.906c-0.052,-0.271 -0.141,-0.504 -0.266,-0.698c-0.125,-0.194 -0.292,-0.343 -0.501,-0.449c-0.208,-0.106 -0.468,-0.159 -0.781,-0.159c-0.316,0 -0.579,0.06 -0.791,0.178c-0.211,0.119 -0.382,0.278 -0.512,0.477c-0.131,0.198 -0.223,0.43 -0.276,0.695c-0.054,0.266 -0.081,0.546 -0.081,0.843c0,0.345 0.026,0.655 0.078,0.93c0.052,0.275 0.14,0.51 0.264,0.705c0.124,0.196 0.29,0.345 0.498,0.447c0.208,0.103 0.47,0.154 0.786,0.154c0.316,-0 0.579,-0.059 0.791,-0.176c0.212,-0.117 0.383,-0.277 0.513,-0.478c0.13,-0.202 0.222,-0.437 0.276,-0.706c0.053,-0.269 0.08,-0.554 0.08,-0.857Z" style="fill:rgb(241,241,241);fill-rule:nonzero;"/>
    <path d="M21.233,15.907c-0,0.58 -0.076,1.075 -0.227,1.487c-0.151,0.412 -0.369,0.748 -0.652,1.008c-0.283,0.261 -0.627,0.452 -1.033,0.574c-0.405,0.122 -0.888,0.183 -1.447,0.183l-1.509,0c-0.108,0 -0.198,-0.032 -0.271,-0.095c-0.073,-0.064 -0.11,-0.167 -0.11,-0.31l-0,-5.508c-0,-0.143 0.037,-0.246 0.11,-0.31c0.073,-0.063 0.163,-0.095 0.271,-0.095l1.621,-0c0.563,-0 1.041,0.066 1.433,0.198c0.392,0.131 0.723,0.327 0.991,0.586c0.269,0.258 0.473,0.578 0.613,0.959c0.14,0.381 0.21,0.822 0.21,1.323Zm-1.328,0.044c-0,-0.299 -0.035,-0.578 -0.105,-0.835c-0.07,-0.257 -0.182,-0.48 -0.337,-0.669c-0.155,-0.189 -0.353,-0.336 -0.596,-0.442c-0.242,-0.105 -0.56,-0.158 -0.954,-0.158l-0.65,-0l0,4.297l0.669,-0c0.352,-0 0.648,-0.046 0.889,-0.137c0.241,-0.091 0.442,-0.229 0.603,-0.413c0.161,-0.184 0.281,-0.412 0.361,-0.686c0.08,-0.273 0.12,-0.592 0.12,-0.957Z" style="fill:rgb(241,241,241);fill-rule:nonzero;"/>
    <path d="M27.971,15.927c0,0.524 -0.065,0.993 -0.195,1.406c-0.13,0.413 -0.324,0.764 -0.581,1.052c-0.257,0.288 -0.575,0.508 -0.955,0.659c-0.379,0.152 -0.818,0.227 -1.316,0.227c-0.491,0 -0.92,-0.064 -1.286,-0.192c-0.366,-0.129 -0.672,-0.325 -0.916,-0.589c-0.244,-0.263 -0.427,-0.599 -0.549,-1.006c-0.122,-0.407 -0.183,-0.888 -0.183,-1.445c-0,-0.511 0.065,-0.971 0.195,-1.379c0.13,-0.409 0.324,-0.756 0.581,-1.043c0.257,-0.286 0.576,-0.506 0.955,-0.659c0.379,-0.153 0.819,-0.229 1.321,-0.229c0.478,-0 0.9,0.063 1.267,0.19c0.366,0.127 0.672,0.322 0.918,0.586c0.245,0.264 0.431,0.596 0.556,0.998c0.126,0.402 0.188,0.877 0.188,1.424Zm-1.347,0.068c-0,-0.332 -0.026,-0.634 -0.079,-0.906c-0.052,-0.271 -0.14,-0.504 -0.266,-0.698c-0.125,-0.194 -0.292,-0.343 -0.5,-0.449c-0.208,-0.106 -0.469,-0.159 -0.781,-0.159c-0.316,0 -0.58,0.06 -0.791,0.178c-0.212,0.119 -0.383,0.278 -0.513,0.477c-0.13,0.198 -0.222,0.43 -0.276,0.695c-0.054,0.266 -0.081,0.546 -0.081,0.843c0,0.345 0.027,0.655 0.079,0.93c0.052,0.275 0.14,0.51 0.263,0.705c0.124,0.196 0.29,0.345 0.498,0.447c0.209,0.103 0.471,0.154 0.786,0.154c0.316,-0 0.58,-0.059 0.791,-0.176c0.212,-0.117 0.383,-0.277 0.513,-0.478c0.13,-0.202 0.222,-0.437 0.276,-0.706c0.054,-0.269 0.081,-0.554 0.081,-0.857Z" style="fill:rgb(241,241,241);fill-rule:nonzero;"/>
    <defs>
        <linearGradient id="_Linear1" x1="0" y1="0" x2="1" y2="0" gradientUnits="userSpaceOnUse" gradientTransform="matrix(23.7601,26.2998,-26.2998,23.7601,3.38974,3.13933)"><stop offset="0" style="stop-color:rgb(98,98,98);stop-opacity:1"/><stop offset="0.15" style="stop-color:rgb(64,64,64);stop-opacity:1"/><stop offset="0.33" style="stop-color:rgb(37,37,37);stop-opacity:1"/><stop offset="1" style="stop-color:rgb(27,27,27);stop-opacity:1"/></linearGradient>
        <linearGradient id="_Linear2" x1="0" y1="0" x2="1" y2="0" gradientUnits="userSpaceOnUse" gradientTransform="matrix(29.5026,0,0,29.5026,1.18868,16)"><stop offset="0" style="stop-color:rgb(241,241,241);stop-opacity:1"/><stop offset="0.5" style="stop-color:white;stop-opacity:1"/><stop offset="1" style="stop-color:rgb(241,241,241);stop-opacity:1"/></linearGradient>
    </defs>
</svg>
